<svg xmlns="http://www.w3.org/2000/svg" viewBox="0 0 800 400" fill="none">
  <rect width="800" height="400" fill="#f8fafc"/>
  <rect x="100" y="100" width="180" height="200" rx="16" fill="#dbeafe" stroke="#3b82f6" stroke-width="2"/>
  <rect x="120" y="130" width="140" height="60" rx="8" fill="#93c5fd"/>
  <rect x="120" y="210" width="60" height="60" rx="8" fill="#60a5fa"/>
  <rect x="200" y="210" width="60" height="60" rx="8" fill="#60a5fa"/>
  <text x="190" y="115" font-family="system-ui" font-size="14" fill="#1e40af" text-anchor="middle">Flexible Hours</text>
  <rect x="310" y="100" width="180" height="200" rx="16" fill="#dcfce7" stroke="#22c55e" stroke-width="2"/>
  <rect x="330" y="130" width="140" height="80" rx="8" fill="#86efac"/>
  <circle cx="400" cy="230" r="30" fill="#4ade80"/>
  <path d="M385 230 L395 240 L415 220" stroke="white" stroke-width="4" stroke-linecap="round" stroke-linejoin="round"/>
  <text x="400" y="115" font-family="system-ui" font-size="14" fill="#166534" text-anchor="middle">Remote Work</text>
  <rect x="520" y="100" width="180" height="200" rx="16" fill="#fef3c7" stroke="#f59e0b" stroke-width="2"/>
  <rect x="540" y="130" width="140" height="100" rx="8" fill="#fcd34d"/>
  <rect x="560" y="250" width="100" height="30" rx="6" fill="#fbbf24"/>
  <text x="610" y="115" font-family="system-ui" font-size="14" fill="#92400e" text-anchor="middle">Equipment</text>
</svg>
