<svg width="800" height="600" viewBox="0 0 800 600" fill="none" xmlns="http://www.w3.org/2000/svg">
  <rect width="800" height="600" fill="#F8FAFC"/>
  <circle cx="400" cy="300" r="250" fill="#E2E8F0" fill-opacity="0.5"/>
  <path d="M200 450L350 300L450 400L600 250" stroke="#3B82F6" stroke-width="8" stroke-linecap="round" stroke-linejoin="round"/>
  <circle cx="200" cy="450" r="10" fill="#3B82F6"/>
  <circle cx="350" cy="300" r="10" fill="#3B82F6"/>
  <circle cx="450" cy="400" r="10" fill="#3B82F6"/>
  <circle cx="600" cy="250" r="10" fill="#3B82F6"/>
  <rect x="250" y="150" width="300" height="200" rx="20" fill="white" stroke="#E2E8F0" stroke-width="2"/>
  <rect x="280" y="190" width="240" height="10" rx="5" fill="#CBD5E1"/>
  <rect x="280" y="220" width="180" height="10" rx="5" fill="#CBD5E1"/>
  <rect x="280" y="250" width="210" height="10" rx="5" fill="#CBD5E1"/>
  <text x="400" y="520" text-anchor="middle" font-family="sans-serif" font-size="24" font-weight="bold" fill="#1E293B">Digital Frontier 2026</text>
  <path d="M100 100L150 150M100 150L150 100" stroke="#94A3B8" stroke-width="4" stroke-linecap="round"/>
  <circle cx="650" cy="500" r="30" stroke="#94A3B8" stroke-width="4"/>
</svg>
