<svg xmlns="http://www.w3.org/2000/svg" viewBox="0 0 800 400" fill="none">
  <rect width="800" height="400" fill="#f8fafc"/>
  <rect x="50" y="80" width="200" height="240" rx="12" fill="#e2e8f0"/>
  <rect x="70" y="100" width="160" height="100" rx="8" fill="#cbd5e1"/>
  <rect x="70" y="220" width="160" height="80" rx="8" fill="#94a3b8"/>
  <circle cx="150" cy="150" r="30" fill="#64748b"/>
  <rect x="300" y="80" width="200" height="240" rx="12" fill="#e2e8f0"/>
  <rect x="320" y="100" width="160" height="100" rx="8" fill="#cbd5e1"/>
  <rect x="320" y="220" width="160" height="80" rx="8" fill="#94a3b8"/>
  <circle cx="400" cy="150" r="30" fill="#64748b"/>
  <rect x="550" y="80" width="200" height="240" rx="12" fill="#e2e8f0"/>
  <rect x="570" y="100" width="160" height="100" rx="8" fill="#cbd5e1"/>
  <rect x="570" y="220" width="160" height="80" rx="8" fill="#94a3b8"/>
  <circle cx="650" cy="150" r="30" fill="#64748b"/>
  <path d="M150 350 L400 350 L650 350" stroke="#475569" stroke-width="4" stroke-linecap="round"/>
  <circle cx="150" cy="350" r="8" fill="#475569"/>
  <circle cx="400" cy="350" r="8" fill="#475569"/>
  <circle cx="650" cy="350" r="8" fill="#475569"/>
</svg>
