<svg xmlns="http://www.w3.org/2000/svg" viewBox="0 0 800 400" fill="none">
  <rect width="800" height="400" fill="#f8fafc"/>
  <rect x="200" y="80" width="400" height="240" rx="20" fill="#e2e8f0"/>
  <rect x="220" y="100" width="360" height="40" rx="8" fill="white" stroke="#94a3b8" stroke-width="2"/>
  <circle cx="250" cy="120" r="12" fill="none" stroke="#64748b" stroke-width="2"/>
  <line x1="258" y1="128" x2="268" y2="138" stroke="#64748b" stroke-width="2" stroke-linecap="round"/>
  <rect x="280" y="110" width="200" height="20" rx="4" fill="#cbd5e1"/>
  <rect x="220" y="160" width="360" height="60" rx="8" fill="white"/>
  <rect x="240" y="175" width="120" height="12" rx="4" fill="#94a3b8"/>
  <rect x="240" y="195" width="200" height="8" rx="4" fill="#cbd5e1"/>
  <rect x="220" y="240" width="360" height="60" rx="8" fill="white"/>
  <rect x="240" y="255" width="140" height="12" rx="4" fill="#94a3b8"/>
  <rect x="240" y="275" width="180" height="8" rx="4" fill="#cbd5e1"/>
  <circle cx="650" cy="200" r="60" fill="#dbeafe"/>
  <path d="M630 200 L650 220 L680 180" stroke="#3b82f6" stroke-width="6" stroke-linecap="round" stroke-linejoin="round"/>
</svg>
